<svg width="95" height="98" xmlns="http://www.w3.org/2000/svg" xmlns:xlink="http://www.w3.org/1999/xlink">
 <title>logo-symbol</title>
 <desc>Created using Figma</desc>
 <defs>
  <path d="m19.131,0l28.1,55l-47.231,-55l19.131,0z" fill-rule="evenodd" id="a"/>
  <path d="m19.131,0l28.1,55l-47.231,-55l19.131,0z" fill-rule="evenodd" id="b"/>
  <path d="m0,0l56.2,0l-28.1,55l-28.1,-55z" fill-rule="evenodd" id="c"/>
  <path d="m28.1,0l-26.621,2.814l-1.479,27.667l28.1,-30.481z" fill-rule="evenodd" id="d"/>
  <path d="m28.1,0l-26.621,2.814l-1.479,27.667l28.1,-30.481z" fill-rule="evenodd" id="e"/>
  <path d="m0,27.667l20.61,-27.667l-1.479,27.667l-19.131,0z" fill-rule="evenodd" id="f"/>
  <path d="m0,27.667l20.61,-27.667l-1.479,27.667l-19.131,0z" fill-rule="evenodd" id="g"/>
  <path d="m28.1,0l-28.1,30.481l56.2,0l-28.1,-30.481z" fill-rule="evenodd" id="h"/>
 </defs>
 <g>
  <title>background</title>
  <rect fill="none" id="canvas_background" height="100" width="97" y="-1" x="-1"/>
 </g>
 <g>
  <title>Layer 1</title>
  <use id="svg_1" x="0.17" y="41.900999" fill="#EA6C00" xlink:href="#a"/>
  <use x="0" y="11" id="svg_2" fill="#EA6C00" transform="matrix(-1,0,0,1,94.64,30.901) " xlink:href="#b"/>
  <use id="svg_3" x="19.299999" y="41.900999" fill="#FDAD00" xlink:href="#c"/>
  <use id="svg_4" x="19.299999" y="11.42" fill="#FDD231" xlink:href="#d"/>
  <use x="0" y="11" id="svg_5" fill="#FDD231" transform="matrix(-1,0,0,1,75.5,0.42) " xlink:href="#e"/>
  <use x="0" y="11" id="svg_6" fill="#FDAD00" transform="matrix(-1,0,0,1,94.64,3.234) " xlink:href="#f"/>
  <use id="svg_7" x="0.17" y="14.234" fill="#FDAD00" xlink:href="#g"/>
  <use id="svg_8" x="19.299999" y="11.42" fill="#FEEEB7" xlink:href="#h"/>
 </g>
</svg>